<?xml version="1.0" encoding="utf-8"?>
<svg xmlns="http://www.w3.org/2000/svg"
    xmlns:xlink="http://www.w3.org/1999/xlink"
    width="1270" height="520" viewBox="-10 -10 1270 520">
<defs>
<style type="text/css"><![CDATA[
line {
    stroke: #000000;
    stroke-linecap: square;
    stroke-width: 5;
}
]]></style>
</defs>
<line x1="41.666666666666664" y1="0.0" x2="41.666666666666664" y2="41.666666666666664"/>
<line x1="41.666666666666664" y1="41.666666666666664" x2="41.666666666666664" y2="83.33333333333333"/>
<line x1="41.666666666666664" y1="83.33333333333333" x2="41.666666666666664" y2="125.0"/>
<line x1="41.666666666666664" y1="125.0" x2="41.666666666666664" y2="166.66666666666666"/>
<line x1="0.0" y1="208.33333333333331" x2="41.666666666666664" y2="208.33333333333331"/>
<line x1="41.666666666666664" y1="208.33333333333331" x2="41.666666666666664" y2="250.0"/>
<line x1="0.0" y1="333.3333333333333" x2="41.666666666666664" y2="333.3333333333333"/>
<line x1="41.666666666666664" y1="375.0" x2="41.666666666666664" y2="416.66666666666663"/>
<line x1="41.666666666666664" y1="416.66666666666663" x2="41.666666666666664" y2="458.3333333333333"/>
<line x1="0.0" y1="500.0" x2="41.666666666666664" y2="500.0"/>
<line x1="83.33333333333333" y1="41.666666666666664" x2="83.33333333333333" y2="83.33333333333333"/>
<line x1="41.666666666666664" y1="125.0" x2="83.33333333333333" y2="125.0"/>
<line x1="83.33333333333333" y1="83.33333333333333" x2="83.33333333333333" y2="125.0"/>
<line x1="41.666666666666664" y1="208.33333333333331" x2="83.33333333333333" y2="208.33333333333331"/>
<line x1="83.33333333333333" y1="166.66666666666666" x2="83.33333333333333" y2="208.33333333333331"/>
<line x1="41.666666666666664" y1="291.66666666666663" x2="83.33333333333333" y2="291.66666666666663"/>
<line x1="83.33333333333333" y1="250.0" x2="83.33333333333333" y2="291.66666666666663"/>
<line x1="41.666666666666664" y1="333.3333333333333" x2="83.33333333333333" y2="333.3333333333333"/>
<line x1="83.33333333333333" y1="291.66666666666663" x2="83.33333333333333" y2="333.3333333333333"/>
<line x1="41.666666666666664" y1="375.0" x2="83.33333333333333" y2="375.0"/>
<line x1="83.33333333333333" y1="416.66666666666663" x2="83.33333333333333" y2="458.3333333333333"/>
<line x1="41.666666666666664" y1="500.0" x2="83.33333333333333" y2="500.0"/>
<line x1="125.0" y1="41.666666666666664" x2="125.0" y2="83.33333333333333"/>
<line x1="125.0" y1="83.33333333333333" x2="125.0" y2="125.0"/>
<line x1="83.33333333333333" y1="166.66666666666666" x2="125.0" y2="166.66666666666666"/>
<line x1="125.0" y1="125.0" x2="125.0" y2="166.66666666666666"/>
<line x1="83.33333333333333" y1="208.33333333333331" x2="125.0" y2="208.33333333333331"/>
<line x1="83.33333333333333" y1="291.66666666666663" x2="125.0" y2="291.66666666666663"/>
<line x1="83.33333333333333" y1="375.0" x2="125.0" y2="375.0"/>
<line x1="125.0" y1="333.3333333333333" x2="125.0" y2="375.0"/>
<line x1="83.33333333333333" y1="416.66666666666663" x2="125.0" y2="416.66666666666663"/>
<line x1="83.33333333333333" y1="500.0" x2="125.0" y2="500.0"/>
<line x1="125.0" y1="458.3333333333333" x2="125.0" y2="500.0"/>
<line x1="166.66666666666666" y1="0.0" x2="166.66666666666666" y2="41.666666666666664"/>
<line x1="125.0" y1="83.33333333333333" x2="166.66666666666666" y2="83.33333333333333"/>
<line x1="166.66666666666666" y1="125.0" x2="166.66666666666666" y2="166.66666666666666"/>
<line x1="166.66666666666666" y1="166.66666666666666" x2="166.66666666666666" y2="208.33333333333331"/>
<line x1="125.0" y1="250.0" x2="166.66666666666666" y2="250.0"/>
<line x1="166.66666666666666" y1="208.33333333333331" x2="166.66666666666666" y2="250.0"/>
<line x1="166.66666666666666" y1="250.0" x2="166.66666666666666" y2="291.66666666666663"/>
<line x1="125.0" y1="333.3333333333333" x2="166.66666666666666" y2="333.3333333333333"/>
<line x1="166.66666666666666" y1="291.66666666666663" x2="166.66666666666666" y2="333.3333333333333"/>
<line x1="125.0" y1="416.66666666666663" x2="166.66666666666666" y2="416.66666666666663"/>
<line x1="166.66666666666666" y1="375.0" x2="166.66666666666666" y2="416.66666666666663"/>
<line x1="125.0" y1="458.3333333333333" x2="166.66666666666666" y2="458.3333333333333"/>
<line x1="125.0" y1="500.0" x2="166.66666666666666" y2="500.0"/>
<line x1="166.66666666666666" y1="41.666666666666664" x2="208.33333333333331" y2="41.666666666666664"/>
<line x1="166.66666666666666" y1="83.33333333333333" x2="208.33333333333331" y2="83.33333333333333"/>
<line x1="166.66666666666666" y1="125.0" x2="208.33333333333331" y2="125.0"/>
<line x1="208.33333333333331" y1="83.33333333333333" x2="208.33333333333331" y2="125.0"/>
<line x1="166.66666666666666" y1="208.33333333333331" x2="208.33333333333331" y2="208.33333333333331"/>
<line x1="208.33333333333331" y1="250.0" x2="208.33333333333331" y2="291.66666666666663"/>
<line x1="208.33333333333331" y1="291.66666666666663" x2="208.33333333333331" y2="333.3333333333333"/>
<line x1="166.66666666666666" y1="375.0" x2="208.33333333333331" y2="375.0"/>
<line x1="208.33333333333331" y1="333.3333333333333" x2="208.33333333333331" y2="375.0"/>
<line x1="166.66666666666666" y1="416.66666666666663" x2="208.33333333333331" y2="416.66666666666663"/>
<line x1="208.33333333333331" y1="416.66666666666663" x2="208.33333333333331" y2="458.3333333333333"/>
<line x1="166.66666666666666" y1="500.0" x2="208.33333333333331" y2="500.0"/>
<line x1="208.33333333333331" y1="83.33333333333333" x2="250.0" y2="83.33333333333333"/>
<line x1="250.0" y1="41.666666666666664" x2="250.0" y2="83.33333333333333"/>
<line x1="208.33333333333331" y1="166.66666666666666" x2="250.0" y2="166.66666666666666"/>
<line x1="250.0" y1="125.0" x2="250.0" y2="166.66666666666666"/>
<line x1="250.0" y1="166.66666666666666" x2="250.0" y2="208.33333333333331"/>
<line x1="208.33333333333331" y1="250.0" x2="250.0" y2="250.0"/>
<line x1="250.0" y1="208.33333333333331" x2="250.0" y2="250.0"/>
<line x1="208.33333333333331" y1="375.0" x2="250.0" y2="375.0"/>
<line x1="250.0" y1="333.3333333333333" x2="250.0" y2="375.0"/>
<line x1="250.0" y1="416.66666666666663" x2="250.0" y2="458.3333333333333"/>
<line x1="208.33333333333331" y1="500.0" x2="250.0" y2="500.0"/>
<line x1="250.0" y1="458.3333333333333" x2="250.0" y2="500.0"/>
<line x1="250.0" y1="41.666666666666664" x2="291.66666666666663" y2="41.666666666666664"/>
<line x1="291.66666666666663" y1="41.666666666666664" x2="291.66666666666663" y2="83.33333333333333"/>
<line x1="250.0" y1="125.0" x2="291.66666666666663" y2="125.0"/>
<line x1="250.0" y1="291.66666666666663" x2="291.66666666666663" y2="291.66666666666663"/>
<line x1="291.66666666666663" y1="250.0" x2="291.66666666666663" y2="291.66666666666663"/>
<line x1="250.0" y1="333.3333333333333" x2="291.66666666666663" y2="333.3333333333333"/>
<line x1="291.66666666666663" y1="291.66666666666663" x2="291.66666666666663" y2="333.3333333333333"/>
<line x1="250.0" y1="416.66666666666663" x2="291.66666666666663" y2="416.66666666666663"/>
<line x1="291.66666666666663" y1="375.0" x2="291.66666666666663" y2="416.66666666666663"/>
<line x1="250.0" y1="500.0" x2="291.66666666666663" y2="500.0"/>
<line x1="333.3333333333333" y1="0.0" x2="333.3333333333333" y2="41.666666666666664"/>
<line x1="291.66666666666663" y1="83.33333333333333" x2="333.3333333333333" y2="83.33333333333333"/>
<line x1="291.66666666666663" y1="125.0" x2="333.3333333333333" y2="125.0"/>
<line x1="291.66666666666663" y1="166.66666666666666" x2="333.3333333333333" y2="166.66666666666666"/>
<line x1="333.3333333333333" y1="125.0" x2="333.3333333333333" y2="166.66666666666666"/>
<line x1="291.66666666666663" y1="208.33333333333331" x2="333.3333333333333" y2="208.33333333333331"/>
<line x1="291.66666666666663" y1="250.0" x2="333.3333333333333" y2="250.0"/>
<line x1="333.3333333333333" y1="291.66666666666663" x2="333.3333333333333" y2="333.3333333333333"/>
<line x1="291.66666666666663" y1="375.0" x2="333.3333333333333" y2="375.0"/>
<line x1="333.3333333333333" y1="333.3333333333333" x2="333.3333333333333" y2="375.0"/>
<line x1="333.3333333333333" y1="375.0" x2="333.3333333333333" y2="416.66666666666663"/>
<line x1="291.66666666666663" y1="458.3333333333333" x2="333.3333333333333" y2="458.3333333333333"/>
<line x1="333.3333333333333" y1="416.66666666666663" x2="333.3333333333333" y2="458.3333333333333"/>
<line x1="291.66666666666663" y1="500.0" x2="333.3333333333333" y2="500.0"/>
<line x1="333.3333333333333" y1="41.666666666666664" x2="375.0" y2="41.666666666666664"/>
<line x1="375.0" y1="41.666666666666664" x2="375.0" y2="83.33333333333333"/>
<line x1="333.3333333333333" y1="125.0" x2="375.0" y2="125.0"/>
<line x1="375.0" y1="83.33333333333333" x2="375.0" y2="125.0"/>
<line x1="333.3333333333333" y1="208.33333333333331" x2="375.0" y2="208.33333333333331"/>
<line x1="375.0" y1="166.66666666666666" x2="375.0" y2="208.33333333333331"/>
<line x1="333.3333333333333" y1="250.0" x2="375.0" y2="250.0"/>
<line x1="375.0" y1="208.33333333333331" x2="375.0" y2="250.0"/>
<line x1="375.0" y1="250.0" x2="375.0" y2="291.66666666666663"/>
<line x1="333.3333333333333" y1="333.3333333333333" x2="375.0" y2="333.3333333333333"/>
<line x1="375.0" y1="375.0" x2="375.0" y2="416.66666666666663"/>
<line x1="333.3333333333333" y1="458.3333333333333" x2="375.0" y2="458.3333333333333"/>
<line x1="333.3333333333333" y1="500.0" x2="375.0" y2="500.0"/>
<line x1="416.66666666666663" y1="41.666666666666664" x2="416.66666666666663" y2="83.33333333333333"/>
<line x1="375.0" y1="125.0" x2="416.66666666666663" y2="125.0"/>
<line x1="375.0" y1="208.33333333333331" x2="416.66666666666663" y2="208.33333333333331"/>
<line x1="375.0" y1="291.66666666666663" x2="416.66666666666663" y2="291.66666666666663"/>
<line x1="375.0" y1="333.3333333333333" x2="416.66666666666663" y2="333.3333333333333"/>
<line x1="375.0" y1="375.0" x2="416.66666666666663" y2="375.0"/>
<line x1="375.0" y1="458.3333333333333" x2="416.66666666666663" y2="458.3333333333333"/>
<line x1="416.66666666666663" y1="416.66666666666663" x2="416.66666666666663" y2="458.3333333333333"/>
<line x1="375.0" y1="500.0" x2="416.66666666666663" y2="500.0"/>
<line x1="458.3333333333333" y1="0.0" x2="458.3333333333333" y2="41.666666666666664"/>
<line x1="416.66666666666663" y1="83.33333333333333" x2="458.3333333333333" y2="83.33333333333333"/>
<line x1="458.3333333333333" y1="83.33333333333333" x2="458.3333333333333" y2="125.0"/>
<line x1="416.66666666666663" y1="166.66666666666666" x2="458.3333333333333" y2="166.66666666666666"/>
<line x1="458.3333333333333" y1="125.0" x2="458.3333333333333" y2="166.66666666666666"/>
<line x1="458.3333333333333" y1="166.66666666666666" x2="458.3333333333333" y2="208.33333333333331"/>
<line x1="416.66666666666663" y1="250.0" x2="458.3333333333333" y2="250.0"/>
<line x1="458.3333333333333" y1="208.33333333333331" x2="458.3333333333333" y2="250.0"/>
<line x1="458.3333333333333" y1="250.0" x2="458.3333333333333" y2="291.66666666666663"/>
<line x1="416.66666666666663" y1="333.3333333333333" x2="458.3333333333333" y2="333.3333333333333"/>
<line x1="458.3333333333333" y1="291.66666666666663" x2="458.3333333333333" y2="333.3333333333333"/>
<line x1="416.66666666666663" y1="375.0" x2="458.3333333333333" y2="375.0"/>
<line x1="416.66666666666663" y1="416.66666666666663" x2="458.3333333333333" y2="416.66666666666663"/>
<line x1="416.66666666666663" y1="500.0" x2="458.3333333333333" y2="500.0"/>
<line x1="458.3333333333333" y1="41.666666666666664" x2="500.0" y2="41.666666666666664"/>
<line x1="500.0" y1="41.666666666666664" x2="500.0" y2="83.33333333333333"/>
<line x1="500.0" y1="83.33333333333333" x2="500.0" y2="125.0"/>
<line x1="458.3333333333333" y1="166.66666666666666" x2="500.0" y2="166.66666666666666"/>
<line x1="500.0" y1="166.66666666666666" x2="500.0" y2="208.33333333333331"/>
<line x1="500.0" y1="291.66666666666663" x2="500.0" y2="333.3333333333333"/>
<line x1="458.3333333333333" y1="375.0" x2="500.0" y2="375.0"/>
<line x1="500.0" y1="333.3333333333333" x2="500.0" y2="375.0"/>
<line x1="500.0" y1="375.0" x2="500.0" y2="416.66666666666663"/>
<line x1="458.3333333333333" y1="458.3333333333333" x2="500.0" y2="458.3333333333333"/>
<line x1="500.0" y1="416.66666666666663" x2="500.0" y2="458.3333333333333"/>
<line x1="458.3333333333333" y1="500.0" x2="500.0" y2="500.0"/>
<line x1="500.0" y1="458.3333333333333" x2="500.0" y2="500.0"/>
<line x1="500.0" y1="125.0" x2="541.6666666666666" y2="125.0"/>
<line x1="541.6666666666666" y1="83.33333333333333" x2="541.6666666666666" y2="125.0"/>
<line x1="541.6666666666666" y1="125.0" x2="541.6666666666666" y2="166.66666666666666"/>
<line x1="500.0" y1="208.33333333333331" x2="541.6666666666666" y2="208.33333333333331"/>
<line x1="500.0" y1="250.0" x2="541.6666666666666" y2="250.0"/>
<line x1="541.6666666666666" y1="208.33333333333331" x2="541.6666666666666" y2="250.0"/>
<line x1="541.6666666666666" y1="291.66666666666663" x2="541.6666666666666" y2="333.3333333333333"/>
<line x1="541.6666666666666" y1="333.3333333333333" x2="541.6666666666666" y2="375.0"/>
<line x1="541.6666666666666" y1="375.0" x2="541.6666666666666" y2="416.66666666666663"/>
<line x1="541.6666666666666" y1="416.66666666666663" x2="541.6666666666666" y2="458.3333333333333"/>
<line x1="500.0" y1="500.0" x2="541.6666666666666" y2="500.0"/>
<line x1="541.6666666666666" y1="41.666666666666664" x2="583.3333333333333" y2="41.666666666666664"/>
<line x1="583.3333333333333" y1="41.666666666666664" x2="583.3333333333333" y2="83.33333333333333"/>
<line x1="583.3333333333333" y1="83.33333333333333" x2="583.3333333333333" y2="125.0"/>
<line x1="541.6666666666666" y1="166.66666666666666" x2="583.3333333333333" y2="166.66666666666666"/>
<line x1="583.3333333333333" y1="166.66666666666666" x2="583.3333333333333" y2="208.33333333333331"/>
<line x1="541.6666666666666" y1="250.0" x2="583.3333333333333" y2="250.0"/>
<line x1="583.3333333333333" y1="250.0" x2="583.3333333333333" y2="291.66666666666663"/>
<line x1="541.6666666666666" y1="333.3333333333333" x2="583.3333333333333" y2="333.3333333333333"/>
<line x1="583.3333333333333" y1="375.0" x2="583.3333333333333" y2="416.66666666666663"/>
<line x1="541.6666666666666" y1="458.3333333333333" x2="583.3333333333333" y2="458.3333333333333"/>
<line x1="583.3333333333333" y1="416.66666666666663" x2="583.3333333333333" y2="458.3333333333333"/>
<line x1="541.6666666666666" y1="500.0" x2="583.3333333333333" y2="500.0"/>
<line x1="583.3333333333333" y1="41.666666666666664" x2="625.0" y2="41.666666666666664"/>
<line x1="583.3333333333333" y1="83.33333333333333" x2="625.0" y2="83.33333333333333"/>
<line x1="625.0" y1="125.0" x2="625.0" y2="166.66666666666666"/>
<line x1="583.3333333333333" y1="208.33333333333331" x2="625.0" y2="208.33333333333331"/>
<line x1="625.0" y1="166.66666666666666" x2="625.0" y2="208.33333333333331"/>
<line x1="583.3333333333333" y1="250.0" x2="625.0" y2="250.0"/>
<line x1="583.3333333333333" y1="333.3333333333333" x2="625.0" y2="333.3333333333333"/>
<line x1="625.0" y1="291.66666666666663" x2="625.0" y2="333.3333333333333"/>
<line x1="583.3333333333333" y1="375.0" x2="625.0" y2="375.0"/>
<line x1="625.0" y1="416.66666666666663" x2="625.0" y2="458.3333333333333"/>
<line x1="583.3333333333333" y1="500.0" x2="625.0" y2="500.0"/>
<line x1="625.0" y1="41.666666666666664" x2="666.6666666666666" y2="41.666666666666664"/>
<line x1="625.0" y1="83.33333333333333" x2="666.6666666666666" y2="83.33333333333333"/>
<line x1="666.6666666666666" y1="83.33333333333333" x2="666.6666666666666" y2="125.0"/>
<line x1="625.0" y1="166.66666666666666" x2="666.6666666666666" y2="166.66666666666666"/>
<line x1="625.0" y1="250.0" x2="666.6666666666666" y2="250.0"/>
<line x1="666.6666666666666" y1="208.33333333333331" x2="666.6666666666666" y2="250.0"/>
<line x1="666.6666666666666" y1="250.0" x2="666.6666666666666" y2="291.66666666666663"/>
<line x1="666.6666666666666" y1="291.66666666666663" x2="666.6666666666666" y2="333.3333333333333"/>
<line x1="625.0" y1="375.0" x2="666.6666666666666" y2="375.0"/>
<line x1="666.6666666666666" y1="333.3333333333333" x2="666.6666666666666" y2="375.0"/>
<line x1="625.0" y1="458.3333333333333" x2="666.6666666666666" y2="458.3333333333333"/>
<line x1="625.0" y1="500.0" x2="666.6666666666666" y2="500.0"/>
<line x1="708.3333333333333" y1="0.0" x2="708.3333333333333" y2="41.666666666666664"/>
<line x1="708.3333333333333" y1="41.666666666666664" x2="708.3333333333333" y2="83.33333333333333"/>
<line x1="666.6666666666666" y1="125.0" x2="708.3333333333333" y2="125.0"/>
<line x1="708.3333333333333" y1="125.0" x2="708.3333333333333" y2="166.66666666666666"/>
<line x1="666.6666666666666" y1="208.33333333333331" x2="708.3333333333333" y2="208.33333333333331"/>
<line x1="708.3333333333333" y1="166.66666666666666" x2="708.3333333333333" y2="208.33333333333331"/>
<line x1="708.3333333333333" y1="208.33333333333331" x2="708.3333333333333" y2="250.0"/>
<line x1="708.3333333333333" y1="291.66666666666663" x2="708.3333333333333" y2="333.3333333333333"/>
<line x1="666.6666666666666" y1="375.0" x2="708.3333333333333" y2="375.0"/>
<line x1="666.6666666666666" y1="416.66666666666663" x2="708.3333333333333" y2="416.66666666666663"/>
<line x1="708.3333333333333" y1="375.0" x2="708.3333333333333" y2="416.66666666666663"/>
<line x1="666.6666666666666" y1="458.3333333333333" x2="708.3333333333333" y2="458.3333333333333"/>
<line x1="666.6666666666666" y1="500.0" x2="708.3333333333333" y2="500.0"/>
<line x1="750.0" y1="0.0" x2="750.0" y2="41.666666666666664"/>
<line x1="708.3333333333333" y1="83.33333333333333" x2="750.0" y2="83.33333333333333"/>
<line x1="750.0" y1="83.33333333333333" x2="750.0" y2="125.0"/>
<line x1="750.0" y1="125.0" x2="750.0" y2="166.66666666666666"/>
<line x1="750.0" y1="166.66666666666666" x2="750.0" y2="208.33333333333331"/>
<line x1="708.3333333333333" y1="250.0" x2="750.0" y2="250.0"/>
<line x1="708.3333333333333" y1="291.66666666666663" x2="750.0" y2="291.66666666666663"/>
<line x1="708.3333333333333" y1="333.3333333333333" x2="750.0" y2="333.3333333333333"/>
<line x1="708.3333333333333" y1="375.0" x2="750.0" y2="375.0"/>
<line x1="708.3333333333333" y1="458.3333333333333" x2="750.0" y2="458.3333333333333"/>
<line x1="750.0" y1="416.66666666666663" x2="750.0" y2="458.3333333333333"/>
<line x1="708.3333333333333" y1="500.0" x2="750.0" y2="500.0"/>
<line x1="750.0" y1="458.3333333333333" x2="750.0" y2="500.0"/>
<line x1="750.0" y1="83.33333333333333" x2="791.6666666666666" y2="83.33333333333333"/>
<line x1="791.6666666666666" y1="41.666666666666664" x2="791.6666666666666" y2="83.33333333333333"/>
<line x1="791.6666666666666" y1="125.0" x2="791.6666666666666" y2="166.66666666666666"/>
<line x1="791.6666666666666" y1="166.66666666666666" x2="791.6666666666666" y2="208.33333333333331"/>
<line x1="750.0" y1="250.0" x2="791.6666666666666" y2="250.0"/>
<line x1="791.6666666666666" y1="208.33333333333331" x2="791.6666666666666" y2="250.0"/>
<line x1="750.0" y1="291.66666666666663" x2="791.6666666666666" y2="291.66666666666663"/>
<line x1="750.0" y1="333.3333333333333" x2="791.6666666666666" y2="333.3333333333333"/>
<line x1="750.0" y1="375.0" x2="791.6666666666666" y2="375.0"/>
<line x1="791.6666666666666" y1="416.66666666666663" x2="791.6666666666666" y2="458.3333333333333"/>
<line x1="750.0" y1="500.0" x2="791.6666666666666" y2="500.0"/>
<line x1="833.3333333333333" y1="41.666666666666664" x2="833.3333333333333" y2="83.33333333333333"/>
<line x1="791.6666666666666" y1="125.0" x2="833.3333333333333" y2="125.0"/>
<line x1="833.3333333333333" y1="83.33333333333333" x2="833.3333333333333" y2="125.0"/>
<line x1="833.3333333333333" y1="166.66666666666666" x2="833.3333333333333" y2="208.33333333333331"/>
<line x1="833.3333333333333" y1="208.33333333333331" x2="833.3333333333333" y2="250.0"/>
<line x1="791.6666666666666" y1="291.66666666666663" x2="833.3333333333333" y2="291.66666666666663"/>
<line x1="833.3333333333333" y1="250.0" x2="833.3333333333333" y2="291.66666666666663"/>
<line x1="791.6666666666666" y1="333.3333333333333" x2="833.3333333333333" y2="333.3333333333333"/>
<line x1="791.6666666666666" y1="375.0" x2="833.3333333333333" y2="375.0"/>
<line x1="791.6666666666666" y1="416.66666666666663" x2="833.3333333333333" y2="416.66666666666663"/>
<line x1="833.3333333333333" y1="375.0" x2="833.3333333333333" y2="416.66666666666663"/>
<line x1="791.6666666666666" y1="500.0" x2="833.3333333333333" y2="500.0"/>
<line x1="833.3333333333333" y1="41.666666666666664" x2="875.0" y2="41.666666666666664"/>
<line x1="875.0" y1="83.33333333333333" x2="875.0" y2="125.0"/>
<line x1="833.3333333333333" y1="166.66666666666666" x2="875.0" y2="166.66666666666666"/>
<line x1="875.0" y1="125.0" x2="875.0" y2="166.66666666666666"/>
<line x1="875.0" y1="208.33333333333331" x2="875.0" y2="250.0"/>
<line x1="833.3333333333333" y1="291.66666666666663" x2="875.0" y2="291.66666666666663"/>
<line x1="833.3333333333333" y1="333.3333333333333" x2="875.0" y2="333.3333333333333"/>
<line x1="833.3333333333333" y1="375.0" x2="875.0" y2="375.0"/>
<line x1="833.3333333333333" y1="458.3333333333333" x2="875.0" y2="458.3333333333333"/>
<line x1="875.0" y1="416.66666666666663" x2="875.0" y2="458.3333333333333"/>
<line x1="833.3333333333333" y1="500.0" x2="875.0" y2="500.0"/>
<line x1="916.6666666666666" y1="0.0" x2="916.6666666666666" y2="41.666666666666664"/>
<line x1="875.0" y1="83.33333333333333" x2="916.6666666666666" y2="83.33333333333333"/>
<line x1="916.6666666666666" y1="41.666666666666664" x2="916.6666666666666" y2="83.33333333333333"/>
<line x1="875.0" y1="166.66666666666666" x2="916.6666666666666" y2="166.66666666666666"/>
<line x1="875.0" y1="208.33333333333331" x2="916.6666666666666" y2="208.33333333333331"/>
<line x1="916.6666666666666" y1="208.33333333333331" x2="916.6666666666666" y2="250.0"/>
<line x1="916.6666666666666" y1="250.0" x2="916.6666666666666" y2="291.66666666666663"/>
<line x1="875.0" y1="333.3333333333333" x2="916.6666666666666" y2="333.3333333333333"/>
<line x1="875.0" y1="375.0" x2="916.6666666666666" y2="375.0"/>
<line x1="875.0" y1="416.66666666666663" x2="916.6666666666666" y2="416.66666666666663"/>
<line x1="875.0" y1="458.3333333333333" x2="916.6666666666666" y2="458.3333333333333"/>
<line x1="875.0" y1="500.0" x2="916.6666666666666" y2="500.0"/>
<line x1="958.3333333333333" y1="0.0" x2="958.3333333333333" y2="41.666666666666664"/>
<line x1="958.3333333333333" y1="41.666666666666664" x2="958.3333333333333" y2="83.33333333333333"/>
<line x1="916.6666666666666" y1="125.0" x2="958.3333333333333" y2="125.0"/>
<line x1="958.3333333333333" y1="125.0" x2="958.3333333333333" y2="166.66666666666666"/>
<line x1="916.6666666666666" y1="208.33333333333331" x2="958.3333333333333" y2="208.33333333333331"/>
<line x1="958.3333333333333" y1="166.66666666666666" x2="958.3333333333333" y2="208.33333333333331"/>
<line x1="916.6666666666666" y1="291.66666666666663" x2="958.3333333333333" y2="291.66666666666663"/>
<line x1="916.6666666666666" y1="333.3333333333333" x2="958.3333333333333" y2="333.3333333333333"/>
<line x1="958.3333333333333" y1="291.66666666666663" x2="958.3333333333333" y2="333.3333333333333"/>
<line x1="916.6666666666666" y1="375.0" x2="958.3333333333333" y2="375.0"/>
<line x1="916.6666666666666" y1="416.66666666666663" x2="958.3333333333333" y2="416.66666666666663"/>
<line x1="916.6666666666666" y1="500.0" x2="958.3333333333333" y2="500.0"/>
<line x1="958.3333333333333" y1="458.3333333333333" x2="958.3333333333333" y2="500.0"/>
<line x1="1000.0" y1="41.666666666666664" x2="1000.0" y2="83.33333333333333"/>
<line x1="958.3333333333333" y1="125.0" x2="1000.0" y2="125.0"/>
<line x1="1000.0" y1="83.33333333333333" x2="1000.0" y2="125.0"/>
<line x1="958.3333333333333" y1="208.33333333333331" x2="1000.0" y2="208.33333333333331"/>
<line x1="958.3333333333333" y1="250.0" x2="1000.0" y2="250.0"/>
<line x1="1000.0" y1="250.0" x2="1000.0" y2="291.66666666666663"/>
<line x1="958.3333333333333" y1="333.3333333333333" x2="1000.0" y2="333.3333333333333"/>
<line x1="1000.0" y1="333.3333333333333" x2="1000.0" y2="375.0"/>
<line x1="958.3333333333333" y1="416.66666666666663" x2="1000.0" y2="416.66666666666663"/>
<line x1="1000.0" y1="375.0" x2="1000.0" y2="416.66666666666663"/>
<line x1="958.3333333333333" y1="458.3333333333333" x2="1000.0" y2="458.3333333333333"/>
<line x1="958.3333333333333" y1="500.0" x2="1000.0" y2="500.0"/>
<line x1="1041.6666666666665" y1="0.0" x2="1041.6666666666665" y2="41.666666666666664"/>
<line x1="1000.0" y1="83.33333333333333" x2="1041.6666666666665" y2="83.33333333333333"/>
<line x1="1000.0" y1="166.66666666666666" x2="1041.6666666666665" y2="166.66666666666666"/>
<line x1="1041.6666666666665" y1="125.0" x2="1041.6666666666665" y2="166.66666666666666"/>
<line x1="1041.6666666666665" y1="166.66666666666666" x2="1041.6666666666665" y2="208.33333333333331"/>
<line x1="1000.0" y1="250.0" x2="1041.6666666666665" y2="250.0"/>
<line x1="1041.6666666666665" y1="208.33333333333331" x2="1041.6666666666665" y2="250.0"/>
<line x1="1000.0" y1="333.3333333333333" x2="1041.6666666666665" y2="333.3333333333333"/>
<line x1="1041.6666666666665" y1="333.3333333333333" x2="1041.6666666666665" y2="375.0"/>
<line x1="1000.0" y1="416.66666666666663" x2="1041.6666666666665" y2="416.66666666666663"/>
<line x1="1041.6666666666665" y1="416.66666666666663" x2="1041.6666666666665" y2="458.3333333333333"/>
<line x1="1000.0" y1="500.0" x2="1041.6666666666665" y2="500.0"/>
<line x1="1041.6666666666665" y1="83.33333333333333" x2="1083.3333333333333" y2="83.33333333333333"/>
<line x1="1083.3333333333333" y1="41.666666666666664" x2="1083.3333333333333" y2="83.33333333333333"/>
<line x1="1083.3333333333333" y1="83.33333333333333" x2="1083.3333333333333" y2="125.0"/>
<line x1="1083.3333333333333" y1="125.0" x2="1083.3333333333333" y2="166.66666666666666"/>
<line x1="1041.6666666666665" y1="208.33333333333331" x2="1083.3333333333333" y2="208.33333333333331"/>
<line x1="1041.6666666666665" y1="250.0" x2="1083.3333333333333" y2="250.0"/>
<line x1="1041.6666666666665" y1="291.66666666666663" x2="1083.3333333333333" y2="291.66666666666663"/>
<line x1="1083.3333333333333" y1="291.66666666666663" x2="1083.3333333333333" y2="333.3333333333333"/>
<line x1="1041.6666666666665" y1="375.0" x2="1083.3333333333333" y2="375.0"/>
<line x1="1041.6666666666665" y1="458.3333333333333" x2="1083.3333333333333" y2="458.3333333333333"/>
<line x1="1083.3333333333333" y1="416.66666666666663" x2="1083.3333333333333" y2="458.3333333333333"/>
<line x1="1041.6666666666665" y1="500.0" x2="1083.3333333333333" y2="500.0"/>
<line x1="1083.3333333333333" y1="83.33333333333333" x2="1125.0" y2="83.33333333333333"/>
<line x1="1125.0" y1="125.0" x2="1125.0" y2="166.66666666666666"/>
<line x1="1083.3333333333333" y1="208.33333333333331" x2="1125.0" y2="208.33333333333331"/>
<line x1="1125.0" y1="166.66666666666666" x2="1125.0" y2="208.33333333333331"/>
<line x1="1083.3333333333333" y1="250.0" x2="1125.0" y2="250.0"/>
<line x1="1083.3333333333333" y1="291.66666666666663" x2="1125.0" y2="291.66666666666663"/>
<line x1="1125.0" y1="291.66666666666663" x2="1125.0" y2="333.3333333333333"/>
<line x1="1125.0" y1="333.3333333333333" x2="1125.0" y2="375.0"/>
<line x1="1083.3333333333333" y1="416.66666666666663" x2="1125.0" y2="416.66666666666663"/>
<line x1="1083.3333333333333" y1="500.0" x2="1125.0" y2="500.0"/>
<line x1="1125.0" y1="458.3333333333333" x2="1125.0" y2="500.0"/>
<line x1="1125.0" y1="41.666666666666664" x2="1166.6666666666665" y2="41.666666666666664"/>
<line x1="1166.6666666666665" y1="41.666666666666664" x2="1166.6666666666665" y2="83.33333333333333"/>
<line x1="1125.0" y1="125.0" x2="1166.6666666666665" y2="125.0"/>
<line x1="1166.6666666666665" y1="83.33333333333333" x2="1166.6666666666665" y2="125.0"/>
<line x1="1166.6666666666665" y1="166.66666666666666" x2="1166.6666666666665" y2="208.33333333333331"/>
<line x1="1125.0" y1="250.0" x2="1166.6666666666665" y2="250.0"/>
<line x1="1166.6666666666665" y1="250.0" x2="1166.6666666666665" y2="291.66666666666663"/>
<line x1="1125.0" y1="333.3333333333333" x2="1166.6666666666665" y2="333.3333333333333"/>
<line x1="1125.0" y1="375.0" x2="1166.6666666666665" y2="375.0"/>
<line x1="1125.0" y1="416.66666666666663" x2="1166.6666666666665" y2="416.66666666666663"/>
<line x1="1166.6666666666665" y1="416.66666666666663" x2="1166.6666666666665" y2="458.3333333333333"/>
<line x1="1125.0" y1="500.0" x2="1166.6666666666665" y2="500.0"/>
<line x1="1208.3333333333333" y1="0.0" x2="1208.3333333333333" y2="41.666666666666664"/>
<line x1="1166.6666666666665" y1="83.33333333333333" x2="1208.3333333333333" y2="83.33333333333333"/>
<line x1="1208.3333333333333" y1="83.33333333333333" x2="1208.3333333333333" y2="125.0"/>
<line x1="1208.3333333333333" y1="125.0" x2="1208.3333333333333" y2="166.66666666666666"/>
<line x1="1166.6666666666665" y1="208.33333333333331" x2="1208.3333333333333" y2="208.33333333333331"/>
<line x1="1166.6666666666665" y1="250.0" x2="1208.3333333333333" y2="250.0"/>
<line x1="1166.6666666666665" y1="333.3333333333333" x2="1208.3333333333333" y2="333.3333333333333"/>
<line x1="1208.3333333333333" y1="291.66666666666663" x2="1208.3333333333333" y2="333.3333333333333"/>
<line x1="1208.3333333333333" y1="333.3333333333333" x2="1208.3333333333333" y2="375.0"/>
<line x1="1208.3333333333333" y1="375.0" x2="1208.3333333333333" y2="416.66666666666663"/>
<line x1="1166.6666666666665" y1="458.3333333333333" x2="1208.3333333333333" y2="458.3333333333333"/>
<line x1="1208.3333333333333" y1="416.66666666666663" x2="1208.3333333333333" y2="458.3333333333333"/>
<line x1="1166.6666666666665" y1="500.0" x2="1208.3333333333333" y2="500.0"/>
<line x1="1250.0" y1="0.0" x2="1250.0" y2="41.666666666666664"/>
<line x1="1250.0" y1="41.666666666666664" x2="1250.0" y2="83.33333333333333"/>
<line x1="1250.0" y1="83.33333333333333" x2="1250.0" y2="125.0"/>
<line x1="1250.0" y1="125.0" x2="1250.0" y2="166.66666666666666"/>
<line x1="1208.3333333333333" y1="208.33333333333331" x2="1250.0" y2="208.33333333333331"/>
<line x1="1250.0" y1="166.66666666666666" x2="1250.0" y2="208.33333333333331"/>
<line x1="1208.3333333333333" y1="250.0" x2="1250.0" y2="250.0"/>
<line x1="1250.0" y1="208.33333333333331" x2="1250.0" y2="250.0"/>
<line x1="1250.0" y1="250.0" x2="1250.0" y2="291.66666666666663"/>
<line x1="1250.0" y1="291.66666666666663" x2="1250.0" y2="333.3333333333333"/>
<line x1="1250.0" y1="333.3333333333333" x2="1250.0" y2="375.0"/>
<line x1="1250.0" y1="375.0" x2="1250.0" y2="416.66666666666663"/>
<line x1="1250.0" y1="416.66666666666663" x2="1250.0" y2="458.3333333333333"/>
<line x1="1208.3333333333333" y1="500.0" x2="1250.0" y2="500.0"/>
<line x1="1250.0" y1="458.3333333333333" x2="1250.0" y2="500.0"/>
<line x1="0" y1="0" x2="1250" y2="0"/>
<line x1="0" y1="0" x2="0" y2="500"/>
</svg>
